<?xml version="1.0" encoding="UTF-8" standalone="no"?>
<svg
   viewBox="0 0 170.67024 169.74473"
   version="1.1"
   id="svg2188"
   width="170.67024"
   height="169.74474"
   xmlns="http://www.w3.org/2000/svg"
   xmlns:svg="http://www.w3.org/2000/svg">
  <defs
     id="defs2192" />
  <g
     transform="matrix(0.1,0,0,-0.1,-20.171607,291.88584)"
     id="g2186">
    <path
       id="path2152"
       style="stroke-width:0.1"
       transform="matrix(10,0,0,-10,201.72073,2918.8629)"
       d="m 35.541016,0.01171875 c -1.8375,-0.075 -3.714063,0.225 -5.414063,0.875 -2.9,1.19999995 -9.398828,12.50000025 -13.298828,23.00000025 -2.8,7.4 -3.301172,10.1 -3.701172,21 -0.3,9.5 -0.09844,13.70039 1.101563,17.40039 l 1.5,4.798829 -4.400391,6.701171 c -5.7,8.7 -7.8007814,13.798438 -9.8007812,23.898438 -2.8000002,13.700003 -1.79960947,24.900783 3.4003906,40.800783 0,0 1.9461885,5.83511 3.3751243,8.54311 2.2831673,4.32688 4.9872573,8.93467 8.2244683,12.15609 3.6,3.6 6.5,5.70117 8,5.70117 3.2,0 2.90039,-1.60039 -0.59961,-3.40039 -6.3,-3.3 -13.799609,-14.49961 -17.599609,-26.59961 -2.2,-6.6 -2.9011719,-11.1 -3.2011719,-20 -0.5,-10.9 -0.2988281,-12 2.7011719,-21.000001 3.2,-9.8 5.699219,-14.300781 11.699219,-21.800781 l 3.5,-4.199219 -2.59961,-5.201172 c -2.2,-4.4 -2.599609,-6.498828 -2.599609,-14.298828 0,-11.2 1.8,-18.39961 7.5,-30.09961 4.7,-9.6999988 9.2,-15.4003904 12,-15.4003902 1,0 6.100391,4.3992177 11.400391,9.6992192 9.6,9.699998 16.099609,19.501171 16.099609,24.201171 0,3 2.199609,3.59961 6.099609,1.59961 1.9,-1.1 6.699219,-2.000783 11.699219,-2.300781 11.7,-0.700002 33.201164,2.50039 33.201164,4.90039 0,0.6 1.19883,0.899219 2.79883,0.699219 1.9,-0.2 2.8,-0.9 3,-2.5 0.2,-1.2 3.20119,-5.099219 6.70117,-8.699219 6.30001,-6.4 13.59883,-10.899609 24.79883,-15.099609 4.7,-1.8 4.90157,-1.800393 6.60157,0.09961 3.7,4 5.39882,15.09961 4.79882,32.09961 -0.3,9.699998 -1.1,17.900781 -2,21.300781 -1.3,4.6 -1.29919,5.7 -0.19922,7 2,2.2 5.5004,16.898822 6.4004,27.29883 1,10.5 -0.1,25.50156 -2.5,33.60156 -1.5,5.4 -7.9,15.19844 -11,16.89844 -1.8,1 -1.1004,3.20117 1.0996,3.20117 0.70001,0 2.79961,-1.89961 4.59961,-4.09961 0,0 2.39623,-2.66708 3.30079,-4.20117 2.13183,-3.61547 3.89239,-7.82971 4.89853,-11.59961 2.1,-7.7 4.10039,-29.80039 3.40039,-37.400391 -0.3,-3.400003 -1.79882,-10.499219 -3.29882,-15.699219 -2.4,-8.4 -2.70079,-10.8 -2.30079,-20.5 1,-28.5 -0.10078,-43.300781 -3.80078,-49.300781 -2.4,-3.800001 -8.19961,-2.99961 -20.09961,2.90039 -8.6,4.3 -11.49882,6.400781 -17.79882,12.800781 l -7.5,7.798829 -6.70118,-1.400391 c -9,-1.8 -32.600384,-2.8 -37.900384,-1.5 l -4.199219,1 -4,-8.199219 c -4.3,-8.6 -16.799218,-23.3996095 -22.199218,-26.0996092 -1.55,-0.85000015 -3.35,-1.30000005 -5.1875,-1.37500005 z M 36.197266,8.59375 c -0.368337,-0.00459 -0.728321,0.030273 -1.083985,0.1035156 -0.948437,0.1953125 -1.860156,0.6636709 -2.785156,1.3886724 -3.6,2.8 -9.000391,13.3 -10.900391,21 -1.9,7.5 -2.500781,22 -1.300781,29 0.7,4 1.300391,4.90039 3.400391,5.40039 1.8,0.5 2.8,0.199607 3.5,-0.90039 0.5,-0.900003 4.799609,-3.998829 9.599609,-6.798829 19.5,-11.5 23.800781,-15.301562 22.800781,-19.601562 -1.8,-6.9 -8.1,-17.998438 -13.5,-23.398438 -4.2,-4.199999 -7.152113,-6.1612301 -9.730468,-6.193359 z m 0.130859,2.292969 c 0.9,0 3.799609,2.099218 6.599609,4.699219 5.9,5.5 13.199219,19.399999 12.699219,24 -0.2,2.099997 -1.998828,4.099609 -7.298828,8.099609 -8.7,6.5 -22.499609,14.400781 -24.099609,13.800781 -0.7,-0.3 -1.500391,-3.800393 -1.900391,-8.90039 -0.8,-9.300002 1.100391,-21.799219 4.400391,-29.199219 2.6,-5.7 7.799609,-12.5 9.599609,-12.5 z m 117.453125,8.091797 c -0.41351,-0.03318 -0.86914,-0.02051 -1.37305,0.03516 -1.34375,0.148437 -3.02968,0.598437 -5.17968,1.273437 -2.2,0.7 -5.8,2.498438 -8,3.898438 -5.6,3.8 -17.4,15.801172 -18,18.201172 -0.6,2.5 7.89961,11.699609 19.0996,20.599609 9.80001,7.8 12.29922,8.999608 15.19922,7.09961 2.5,-1.6 4.50039,-31.199219 2.90039,-42.199219 -0.91875,-6.16875 -1.75191,-8.675963 -4.64648,-8.908203 z m -2.35352,2.908203 c 1.7,0 2.59961,0.899218 3.59961,3.699219 2.9,8.299998 0.80039,42.300781 -2.59961,42.300781 -3.7,0 -20.4996,-13.300391 -25.09961,-19.900391 -2.5,-3.7 -2.59998,-4.299609 -1.5,-7.099609 2.7,-6.5 19.59961,-19 25.59961,-19 z" />
    <path
       d="m 692.079,2226.071 c -33,-17 -64.151,-63.151 -64.151,-97.151 0,-28 14.123,-63.763 50.841,-89.841 35,-18 103.838,-14.97 146.922,17.83 22,10 43.78,56.33 43.224,91.326 -0.35,22.003 -4.012,32.923 -19.012,49.923 -35,38 -109.825,52.912 -157.825,27.912 z"
       fill="#7a5029"
       id="path2154" />
    <path
       d="m 963,2061 c -18,-11 -35,-31 -39,-45 -9,-36 23,-94 68,-123 34,-23 38,-30 38,-67 0,-40 -1,-41 -61,-70 -52,-24 -69,-28 -116,-23 -63,7 -96,31 -113,83 -12,35 -37,49 -69,39 -62,-19 -14,-266.941 74,-381.941 19.941,-28.823 24.618,-35.042 49.58,-67.949 50.83883,-123.6309 336.2435,-176.0698 430.776,-90.7347 7.818,21.1151 14.946,33.5957 25.817,42.1877 19.16,15.143 41.238,19.143 57.826,27.437 26,14 64,43 85,66 43,48 144,247 153,303 0,0 3.502,21.111 -2.602,28.398 -6.969,8.318 -31.398,8.602 -31.398,8.602 -31.975,1.263 -46,-7 -73,-35 -43,-44 -86,-58 -180,-59 -64,0 -84,4 -135,29 -101,51 -104,115 -6,165 101,51 124,115 57,163 -45,32 -167,37 -213,8 z m 63.972,-338.445 C 1023.972,1698.555 1010,1599 1009,1531 c -2,-94 3.186,-142.175 12.186,-145.175 10,-3 7.463,71.502 2.463,108.502 -6,46 8,272 18,281 3,3 37.351,-55.327 75.351,-71.327 47,-19 87,-27 130,-28 l 63,-1 v -35 c -0.323,-31.056 -11.399,-97.544 -22.246,-139.59 -40.332,-156.345 -78.5116,-212.1964 -129.1427,-241.2537 -113.0724,-26.2057 -237.91898,-38.5161 -288.2523,28.7877 -38.297,39.829 -60.937,100.434 -60.378,191.134 0.064,10.388 -0.892,21.177 -1.111,32.426 -0.378,19.455 -0.315,40.25 0.13,62.495 1,71 3.216,149.457 6.216,154.457 3,4 33.784,-8.457 67.784,-7.457 34,0 71,4 82,9 11,5 38.972,33.555 49.972,33.555 16,1 18,-4 12,-41 z"
       fill="#7a5029"
       stroke="#5c402f"
       stroke-width="26.504"
       id="path2156" />
    <path
       d="m 771.025,2110.334 c 3.572,5.1 6.495,14.071 6.495,19.934 0,5.863 -2.923,14.834 -6.495,19.934 -9.133,13.039 -36.291,13.039 -45.424,0 -8.479,-12.106 -8.284,-31.904 0.41,-41.511 10.186,-11.256 36.656,-10.29 45.014,1.643 z"
       fill="#ffffff"
       id="path2158" />
    <path
       d="m 1420.297,1997.807 c -72.357,19.48 -99.212,63.94 -73.722,117.857 19.575,41.407 42.608,52.156 111.761,52.156 37.835,0 62.786,-9.555 83.346,-29.262 27.329,-26.196 31.69,-54.808 22.31,-86.395 -14.79,-49.802 -74.552,-72.971 -143.694,-54.356 z m 58.319,63.69 c 2.511,1.552 6.412,7.679 8.669,13.615 8.28,21.777 -12.875,46.811 -39.557,46.811 -16.416,0 -35.993,-19.097 -35.993,-35.11 0,-28.53 38.252,-43.01 66.881,-25.316 z"
       fill="#7a5029"
       id="path2160" />
    <path
       d="m 961.287,1258.0176 c -66.446,11.5454 -121.644,66.1557 -140.843,139.3435 -6.45,24.5887 -7.44,47.1659 -7.326,167.2026 0.091,95.5804 0.788,150.3888 3.974,153.728 2.544,2.6669 35.188,-2.7029 71.584,0.4177 36.396,3.1206 79.323,12.5908 93.415,17.7721 20.053,7.3716 34.337,13.9668 37.283,10.88 2.946,-3.0867 -4.928,-40.7757 -7.955,-94.0176 -4.847,-85.2805 -5.258,-238.733 -0.685,-255.9597 2.658,-10.0126 17.012,-18.4984 17.227,-10.1837 l 1.717,119.496 c 1.923,137.2459 10.292,239.638 20.19,237.8694 2.101,-0.3753 26.272,-28.1822 54.274,-39.1609 61.6,-24.1526 97.476,-32.503 139.923,-32.5667 17.635,-0.023 39.494,-0.7341 48.233,-0.9903 l 15.385,0.321 -0.261,-33.0608 c -0.725,-91.8108 -60.829,-270.0532 -110.264,-323.0938 -18.786,-20.1568 -25.644,-24.2029 -60.946,-35.963 -38.744,-12.9069 -116.084,-27.5285 -140.173,-26.5005 -6.59,0.2814 -22.229,2.2919 -34.752,4.4678 z"
       fill="#ffaaaa"
       stroke="#ffaaaa"
       stroke-width="7.26224"
       stroke-miterlimit="22.93"
       id="path2162" />
    <path
       d="m 431.763,2333.177 c -11.636,58.963 -13.608,107.61 -6.859,169.166 9.449,86.182 25.671,147.679 53.448,202.62 25.586,50.607 71.941,108.302 87.015,108.302 13.179,0 65.966,-44.245 94.22,-78.974 49.367,-60.68 100.699,-165.289 99.453,-212.202 -0.821,-30.897 -96.515,-106.579 -233.106,-182.901 -29.286,-16.364 -62.937,-34.71 -71.597,-36.79 -15.067,-3.619 -16.662,0.82 -22.574,30.778 z m 1247.675,-77.025 c -118.128,76.293 -230.433,188.146 -230.433,229.506 0,45.287 113.303,151.258 212.833,199.06 59.282,28.472 72.561,27.237 88.875,-8.261 11.532,-25.092 13.286,-40.984 15.251,-138.212 3.417,-169.061 -14.524,-304.975 -40.258,-304.975 -5.961,0 -26.782,10.297 -46.268,22.883 z"
       fill="#ffc1c4"
       id="path2164" />
    <path
       d="m 1423.243,1877.91 c -66.47,15.666 -134.927,55.608 -194.77,133.176 -41.54,53.843 -56.467,70.792 -153.983,81.545 -103.243,-9.979 -112.365,-1.438 -166.278,-76.042 -18.475,-25.565 -49.168,-64.137 -63.386,-73.403 -56.33,-36.712 -171.806,-51.245 -226.013,-28.443 -14.734,6.198 -41.565,27.255 -59.624,46.795 -42.937,46.456 -67.853,50.729 -141.109,24.197 l -108.01,-39 c -30.757,-11.074 -65.484,-20.402 -66.584,-17.2 -3.849,11.202 45.424,138.408 74.281,185.913 12.733,20.962 38.486,59.796 58.502,83.047 L 412,2240 c -66.899,70.448 -65.349,238.745 -30.844,365.089 36.815,136.395 131.283,284.864 171.552,284.864 8.609,0 27.3,-10.176 108.216,-88.522 97.303,-94.211 161.53,-193.853 168.846,-239.603 2.357,-14.737 1.221,-23.615 6.148,-30.353 8.042,-10.999 34.715,-3.311 61.835,6.445 50.792,18.272 98.457,25.018 189.602,20.975 109.061,-4.838 211.314,-21.044 242.932,-39.544 23.843,-13.95 37.346,-22.171 50.918,-13.192 4.269,2.825 15.713,19.409 22.337,32.981 16.638,34.093 90.213,107.714 137.103,139.745 72.858,49.769 199.412,105.033 222.143,98.89 16.431,-4.44 37.217,-37.523 49.453,-87.221 23.051,-63.47 21.676,-283.887 1.272,-426.193 -2.28,-25.602 -17.341,-67.981 -15.895,-86.547 -0.256,-8.519 14.53,-25.626 19.54,-39.405 36.977,-101.684 50.408,-227.692 49.482,-227.846 -1.207,0.566 -26.553,11.415 -49.206,23.289 -60.459,31.692 -87.848,29.786 -164.638,-11.46 -89.111,-47.863 -158.312,-61.273 -229.553,-44.482 z m 94.234,124.036 c 33.372,13.944 53.283,46.717 48.996,81.717 -6.817,55.658 -46.987,83.743 -114.97,83.761 -71.977,0.023 -101.675,-26.255 -113.411,-80.238 -1.866,-21.685 2.972,-32.953 10.906,-45.062 28.407,-43.355 113.295,-63.235 168.479,-40.178 z m -710.059,43.635 c 55.725,26.976 80.184,111.279 43.76,150.827 -22.671,24.616 -68.798,41.296 -102.332,41.483 -90.055,0.503 -149.105,-95.529 -102.779,-164.875 33.315,-49.869 93.93,-55.567 161.352,-27.435 z m 945.042,169.365 c 34.64,24.237 54.933,418.518 16.735,492.001 -10.708,14.351 -9.908,25.299 -47.604,19.093 -76.668,-12.623 -135.398,-46.599 -203.689,-113.436 -91.059,-92.338 -111.187,-113.458 -100.551,-133.129 12.308,-29.774 103.234,-122.494 190.935,-192.363 94.146,-71.759 113.502,-85.243 144.175,-72.165 z m -1269.758,68.8 c 10.169,9.424 66.507,47.958 126.339,82.61 120.289,69.667 186.752,122.835 187.997,154.129 0.844,21.222 -14.218,63.811 -58.921,144.059 -54.049,97.026 -128.773,165.818 -175.72,167.415 -44.029,1.498 -105.624,-89.674 -141.198,-205.3 -28.287,-91.941 -31.379,-289.674 -8.638,-342.299 9.242,-21.388 46.448,-22.573 70.141,-0.614 z"
       fill="#c8a052"
       id="path2166" />
    <g
       transform="matrix(0.996267,0.086329,0.086329,-0.996267,0,0)"
       fill="#ffc1c4"
       id="g2172">
      <ellipse
         ry="62.887001"
         rx="105.488"
         cy="-1781.1851"
         cx="1835.11"
         id="ellipse2168" />
      <ellipse
         ry="62.887001"
         rx="105.488"
         cy="-1934.066"
         cx="634.77502"
         id="ellipse2170" />
    </g>
    <g
       fill="#ffffff"
       id="g2184">
      <ellipse
         cx="1525.347"
         cy="-1358.304"
         transform="matrix(0.793669,0.60835,0.60835,-0.793669,0,0)"
         rx="34.486"
         ry="22.315001"
         id="ellipse2174" />
      <ellipse
         cx="2381.127"
         cy="-842.29303"
         transform="matrix(0.852952,0.52199,0.52199,-0.852952,0,0)"
         rx="32.458"
         ry="22.315001"
         id="ellipse2176" />
      <path
         style="fill:#ffffff;stroke-width:0.313005"
         d="m 879.15272,1223.315 c -155.53893,3.6293 -244.2645,-11.9079 -355.24848,30.6264 -63.12794,24.1936 -124.89668,67.9243 -161.95239,122.0886 -46.31848,67.7036 -71.57543,114.9215 -99.00157,199.9938 -25.87074,80.2477 -29.9565,147.2309 -31.61999,229.8849 -2.40284,57.093 1.85863,80.4236 7.83737,109.2227 2.35774,11.357 1.98004,9.9096 4.21484,17.3772 3.5556,0.802 38.69752,5.2597 65.37592,13.8452 0,0 34.37293,13.0852 52.88121,19.0866 0.78944,-2.9744 4.00268,-10.5544 7.88511,-14.8187 20.66769,-22.7003 44.36786,-29.762 87.14286,-29.8033 43.4109,-0.04 74.10429,9.2711 99.72834,34.4348 1.36094,1.6074 3.2798,4.9418 4.43438,4.536 8.12636,-7.8748 16.95241,-16.2008 24.45978,-21.9479 8.918,-6.7613 23.6093,-16.2689 32.6473,-21.1278 0,0 10.63682,-5.7495 16.4328,-7.2496 15.66568,-4.0546 48.34459,-4.4137 48.34459,-4.4137 69.01837,0.893 92.52318,8.1673 136.96397,24.9494 30.58108,14.6549 37.67618,23.6738 67.04097,58.5594 7.10387,8.3182 24.93285,32.9777 24.93285,32.9777 l -1.82049,-25.2105 c -0.67806,-9.39 7.94001,-30.5841 14.84461,-44.6108 13.8609,-28.1584 26.06698,-46.4439 59.9997,-70.0144 3.98457,-2.7678 20.733,-12.2139 28.0972,-24.3906 2.8017,-4.6327 3.9153,-12.866 3.9153,-28.5414 0,-21.8979 0.2254,-28.316 -6.4895,-35.0308 -8.6161,-8.6161 -59.4779,-34.0772 -95.97521,-45.2005 -29.14604,-8.8828 -83.5674,-2.0944 -111.2674,10.3366 -19.0493,8.5488 -36.86734,24.2539 -48.08345,55.0523 -11.46707,33.5777 -31.06038,57.3399 -63.72408,57.3689 -31.6291,0.03 -47.54729,-12.7137 -57.18893,-47.2964 -3.2478,-17.5689 -3.85543,-67.4963 -0.65823,-93.4208 7.5235,-61.0032 31.0595,-137.2589 60.866,-197.2034 17.889,-35.9769 31.30489,-57.6999 75.30375,-117.034 20.48241,-27.6213 31.63013,-38.6947 45.15247,-60.9525 4.52454,-12.8448 12.36578,-27.826 17.67878,-37.0137 13.5406,-23.4158 26.1436,-38.6702 44.4899,-53.8496 40.9925,-33.9164 97.70137,-43.1679 163.0458,-38.252 29.0946,2.1887 85.3893,11.7435 108.3585,18.3315 33.2791,9.5452 58.4878,31.2419 89.0772,72.2608 18.8434,31.4816 24.1608,33.7899 68.6902,52.651 42.2184,17.8823 51.209,31.0454 87.0469,60.9248 36.7447,36.9055 62.8423,86.7749 115.8052,189.4748 60.7073,127.8523 59.158,158.8511 41.8853,173.4301 -8.4501,6.3446 -13.5996,7.8826 -40.1094,9.9887 -33.6465,-0.5789 -43.2403,-5.8114 -63.7498,-24.0992 -16.6683,-14.8627 -28.1356,-27.8073 -51.6389,-44.4475 -48.2967,-24.9394 -95.5391,-25.8649 -137.4543,-26.2332 -63.6865,0.4045 -101.2503,10.0581 -148.3737,40.3657 -20.1766,13.7017 -33.5751,24.975 -41.3764,37.3901 -10.1976,16.2286 -8.652,31.6584 -2.1615,45.0661 7.124,14.7162 12.2487,18.0279 53.77,44.3612 72.0052,45.6664 102.0934,62.7005 107.6232,115.0428 1.371,12.9774 -5.4759,28.6368 -5.4759,28.6368 0,0 19.6373,-21.9298 42.4878,-47.4481 22.8505,-25.5183 83.5487,-68.814 136.5983,-86.8086 53.0497,-17.9946 129.9354,-13.0504 165.0705,-0.4954 l 21.5719,7.7084 20.4231,-11.0068 c 13.2691,-7.1512 24.4894,-8.4193 51.1637,-9.3106 47.0613,-1.5724 73.6888,7.4744 100.6801,30.4779 13.7485,14.9539 21.0546,27.7477 20.0689,33.9093 l -2.597,16.2346 32.0998,-14.4206 c 19.8798,-8.9308 54.0284,-24.4056 57.3175,-27.6947 1.3851,-8.845 4.6889,-33.7713 5.0823,-66.3515 2.0406,-51.817 0.2211,-91.4285 -0.228,-105.848 -1.0022,-93.9825 -17.6257,-191.856 -64.2347,-267.6991 -104.8728,-197.5895 -400.8989,-222.9425 -566.909,-245.9708 -153.716,-12.4298 -263.26519,-3.6637 -361.19788,-1.3786 z"
         id="path3806" />
    </g>
  </g>
  <path
     style="fill:#ffffff;stroke-width:0.0533246"
     d="m 123.32312,86.007492 c -1.05301,-0.447821 -2.14245,-1.943474 -2.14245,-2.941284 0,-0.407905 0.52607,-1.267714 1.16904,-1.910685 1.49035,-1.490351 3.1326,-1.536084 4.79929,-0.133652 1.46001,1.228517 1.68264,3.230672 0.48022,4.318839 -0.90811,0.821832 -3.13185,1.166168 -4.3061,0.666782 z"
     id="path2325" />
</svg>
