<?xml version="1.0" encoding="UTF-8" standalone="no"?>
<!-- Generator: Adobe Illustrator 16.0.0, SVG Export Plug-In . SVG Version: 6.00 Build 0)  -->

<svg
   version="1.1"
   id="Capa_1"
   x="0px"
   y="0px"
   width="68.735352"
   height="53.981331"
   viewBox="0 0 68.735349 53.981329"
   xml:space="preserve"
   xmlns="http://www.w3.org/2000/svg"
   xmlns:svg="http://www.w3.org/2000/svg"><defs
   id="defs867" />
<g
   id="g832"
   transform="matrix(0.99832972,0,0,1,-4.7171387,6.2828412)">
	<g
   id="g830">
		<path
   d="m 40.465048,-3.459927 c 4.893535,-2.9970766 10.433044,-3.6316302 15.597854,-1.7888784 4.616096,1.6473636 8.273436,5.04924114 10.034548,9.3320845 0.82284,2.0019659 1.919907,5.0220678 1.939667,8.1212479 0.0064,0.95572 0.26218,1.901882 0.741677,2.736814 l 4.412672,7.687142 c 0.483457,0.839545 0.512335,1.871857 0.07513,2.695716 -0.215413,0.405282 -0.53398,0.744692 -0.921852,0.982247 -0.388686,0.238053 -0.836919,0.368275 -1.298805,0.374289 l -8.477517,0.129824 C 61.44724,26.827345 60.367305,27.215407 59.503958,27.92132 58.55089,28.699781 57.533729,29.421295 56.4807,30.066229 46.222005,36.349233 22.259551,57.590543 9.3856421,42.23673 5.5295934,37.267009 2.7538028,33.277873 6.4958749,24.536697 11.566657,12.691764 30.445372,2.676688 40.465048,-3.459927 Z m 14.282849,31.05966 c 2.368627,-1.602021 6.900496,-4.945414 7.601408,-7.78793 0.245871,-1.107903 1.501182,-0.735218 1.435726,0.147216 -0.06043,1.043601 -1.177454,3.223539 -1.75186,3.92612 0.985501,-0.06274 -2.03754,8.1e-4 8.490043,-0.158613 l -4.23148,-7.372249 C 64.132485,12.590973 66.356029,12.2463 63.430022,5.1280243 62.025989,1.7140264 58.953788,-1.1217546 55.212418,-2.4566377 50.878557,-4.0035062 46.198657,-3.4507893 42.036144,-0.90143139 32.822223,4.7416934 14.089821,15.070229 9.0752744,26.058063 6.0943802,32.589775 8.7351907,37.166955 11.841987,40.61786 23.63818,52.23227 45.866479,32.947706 54.747897,27.599733 Z"
   id="path824"
   style="fill:#f8e2f1;fill-opacity:1;stroke-width:0;stroke-miterlimit:4;stroke-dasharray:none" />
		<path
   d="m 45.452505,-0.66034185 c 4.434638,-0.59373425 9.192926,0.0455944 12.722928,3.91143775 1.287597,1.4099486 1.191512,1.4101374 2.191849,3.1086451 0.747541,1.2890341 -1.219548,2.5782593 -2.058512,0.9686264 0,0 -0.507193,-0.9857337 -0.639294,-1.2427046 C 55.74002,2.6250844 51.917458,0.99031883 47.906366,0.63716346 45.563152,0.45328736 44.842684,0.9074473 44.722281,0.08722317 c -0.05338,-0.37323107 0.144812,-0.66355101 0.730224,-0.74756502 z"
   id="path826"
   style="fill:#f8e2f1;fill-opacity:1" />
		<path
   d="m 59.55436,10.374824 c -0.600465,-1.5938035 2.683541,-3.1569584 2.533236,1.808501 -0.04565,1.487397 -2.319145,1.437973 -2.274598,-0.07221 0.0282,-0.948777 -0.255823,-1.729797 -0.258638,-1.736286 z"
   id="path828"
   style="fill:#f8e2f1;fill-opacity:1" />
	<text
   xml:space="preserve"
   style="font-style:normal;font-variant:normal;font-weight:800;font-stretch:condensed;font-size:16.5483px;line-height:1.25;font-family:Futura;-inkscape-font-specification:'Futura, Ultra-Bold Condensed';font-variant-ligatures:normal;font-variant-caps:normal;font-variant-numeric:normal;font-variant-east-asian:normal;fill:#f8e2f1;fill-opacity:1;stroke:none;stroke-width:1.24156;stroke-miterlimit:4;stroke-dasharray:none"
   x="-8.1031485"
   y="47.330013"
   id="text1602"
   transform="matrix(0.81714032,-0.65043776,0.57880023,0.76305924,0,0)"><tspan
     id="tspan1600"
     style="font-style:normal;font-variant:normal;font-weight:800;font-stretch:condensed;font-size:16.5483px;font-family:Futura;-inkscape-font-specification:'Futura, Ultra-Bold Condensed';font-variant-ligatures:normal;font-variant-caps:normal;font-variant-numeric:normal;font-variant-east-asian:normal;fill:#f8e2f1;fill-opacity:1;stroke-width:1.24156;stroke-miterlimit:4;stroke-dasharray:none"
     x="-8.1031485"
     y="47.330013">WOOF</tspan></text></g>
</g>
<g
   id="g834"
   transform="translate(-4.7171387,6.2828412)">
</g>
<g
   id="g836"
   transform="translate(-4.7171387,6.2828412)">
</g>
<g
   id="g838"
   transform="translate(-4.7171387,6.2828412)">
</g>
<g
   id="g840"
   transform="translate(-4.7171387,6.2828412)">
</g>
<g
   id="g842"
   transform="translate(-4.7171387,6.2828412)">
</g>
<g
   id="g844"
   transform="translate(-4.7171387,6.2828412)">
</g>
<g
   id="g846"
   transform="translate(-4.7171387,6.2828412)">
</g>
<g
   id="g848"
   transform="translate(-4.7171387,6.2828412)">
</g>
<g
   id="g850"
   transform="translate(-4.7171387,6.2828412)">
</g>
<g
   id="g852"
   transform="translate(-4.7171387,6.2828412)">
</g>
<g
   id="g854"
   transform="translate(-4.7171387,6.2828412)">
</g>
<g
   id="g856"
   transform="translate(-4.7171387,6.2828412)">
</g>
<g
   id="g858"
   transform="translate(-4.7171387,6.2828412)">
</g>
<g
   id="g860"
   transform="translate(-4.7171387,6.2828412)">
</g>
<g
   id="g862"
   transform="translate(-4.7171387,6.2828412)">
</g>
</svg>
