<?xml version="1.0" encoding="UTF-8" standalone="no"?>
<!-- Generator: Adobe Illustrator 16.0.0, SVG Export Plug-In . SVG Version: 6.00 Build 0)  -->

<svg
   version="1.1"
   id="Capa_1"
   x="0px"
   y="0px"
   width="75.224625"
   height="40.202042"
   viewBox="0 0 75.224623 40.20204"
   xml:space="preserve"
   xmlns="http://www.w3.org/2000/svg"
   xmlns:svg="http://www.w3.org/2000/svg"><defs
   id="defs867" />
<g
   id="g832"
   transform="matrix(0.98988823,0.1295512,-0.12976795,0.99154439,6.7914147,-4.2187585)">
	<g
   id="g830">
		<path
   d="m 18.971,1.967 c -6.018,0 -11.316,2.351 -14.919,6.618 -3.22,3.814 -4.62,8.623 -3.842,13.193 0.364,2.136 1.042,5.283 2.726,7.935 0.519,0.818 1.2904212,1.884548 0.84,2.72 -0.7670548,1.422752 -5.0523048,3.265354 -5.6208964,5.802024 0.193188,1.920199 1.02676062,3.168302 2.39790103,3.03315 C 6.7386915,40.658453 12.921114,38.890014 19.19,38.655 42.36659,38.56417 68.162089,41.369126 71.831164,24.693095 72.547862,18.443959 70.110103,12.964841 64.281414,9.5929945 52.721441,2.9056493 31.293058,1.967 18.971,1.967 Z m 4.292,33.931 c -2.996,-0.129 -8.881,-0.613 -11.068,-2.67 -0.828,-0.816 -1.745,0.157 -1.202,0.875 0.627,0.858 2.822,2.133 3.721,2.432 C 13.799,36.996 1.1203286,39.892864 0.49836331,38.564799 0.00340737,37.507933 6.0817813,35.200907 6.774,32.339 6.8902406,30.144324 4.461,28.871 3.167,21.276 2.547,17.633 3.735,13.612 6.345,10.521 9.368,6.94 13.853,4.968 18.972,4.968 c 11.331151,0 32.9838,1.0318484 43.840035,7.268346 4.927299,2.830548 6.816668,7.7958 5.935501,12.359181 C 64.584643,40.6536 34.135,35.82 23.263,35.898 Z"
   id="path824"
   style="fill:#f2dcfb;fill-opacity:1;stroke-width:0;stroke-miterlimit:4;stroke-dasharray:none" />
		<path
   d="m 15.313,6.957 c -4.091,1.809 -7.812,4.838 -8.796,9.976 -0.359,1.874 -0.277,1.824 -0.24,3.794 0.038,1.489 2.39,1.561 2.262,-0.249 0,0 -0.084,-1.105 -0.106,-1.393 -0.168,-3.957 2.234,-7.346 5.468,-9.741 1.901,-1.38 2.753,-1.369 2.426,-2.131 -0.15,-0.346 -0.471,-0.49 -1.014,-0.256 z"
   id="path826"
   style="fill:#f2dcfb;fill-opacity:1" />
		<path
   d="M 9.073,23.725 C 8.75,22.053 5.132,22.435 7.861,26.589 8.679,27.833 10.591,26.604 9.762,25.34 9.241,24.546 9.074,23.732 9.073,23.725 Z"
   id="path828"
   style="fill:#f2dcfb;fill-opacity:1" />
	<text
   xml:space="preserve"
   style="font-style:normal;font-weight:normal;font-size:14.3136px;line-height:1.25;font-family:sans-serif;fill:#f2dcfb;fill-opacity:1;stroke:none;stroke-width:1.0739;stroke-miterlimit:4;stroke-dasharray:none"
   x="18.845194"
   y="20.212521"
   id="text1602"
   transform="matrix(1.0194369,0.18690826,-0.20186082,0.94392359,0,0)"><tspan
     id="tspan1600"
     style="font-style:normal;font-variant:normal;font-weight:bold;font-stretch:normal;font-size:14.3136px;font-family:Noteworthy;-inkscape-font-specification:'Noteworthy Bold';fill:#f2dcfb;fill-opacity:1;stroke-width:1.0739;stroke-miterlimit:4;stroke-dasharray:none"
     x="18.845194"
     y="20.212521">WOOF</tspan></text></g>
</g>
<g
   id="g834"
   transform="translate(3.5063681,0.24774)">
</g>
<g
   id="g836"
   transform="translate(3.5063681,0.24774)">
</g>
<g
   id="g838"
   transform="translate(3.5063681,0.24774)">
</g>
<g
   id="g840"
   transform="translate(3.5063681,0.24774)">
</g>
<g
   id="g842"
   transform="translate(3.5063681,0.24774)">
</g>
<g
   id="g844"
   transform="translate(3.5063681,0.24774)">
</g>
<g
   id="g846"
   transform="translate(3.5063681,0.24774)">
</g>
<g
   id="g848"
   transform="translate(3.5063681,0.24774)">
</g>
<g
   id="g850"
   transform="translate(3.5063681,0.24774)">
</g>
<g
   id="g852"
   transform="translate(3.5063681,0.24774)">
</g>
<g
   id="g854"
   transform="translate(3.5063681,0.24774)">
</g>
<g
   id="g856"
   transform="translate(3.5063681,0.24774)">
</g>
<g
   id="g858"
   transform="translate(3.5063681,0.24774)">
</g>
<g
   id="g860"
   transform="translate(3.5063681,0.24774)">
</g>
<g
   id="g862"
   transform="translate(3.5063681,0.24774)">
</g>
</svg>
